<svg viewBox="0 0 541 281" xmlns="http://www.w3.org/2000/svg" fill-rule="evenodd" clip-rule="evenodd" stroke-linejoin="round" stroke-miterlimit="1.414">
  <path d="M247 156.29l7.68-45.24h11.64l9.06 24.12 9-24.12h11.64l7.68 45.24H292l-3.9-26.04-10.68 26.04h-4.68l-10.14-26.04-3.9 26.04H247zm71.58-15.48c0 1 .18 1.93.54 2.79.36.86.85 1.61 1.47 2.25.62.64 1.36 1.14 2.22 1.5.86.36 1.79.54 2.79.54.96 0 1.87-.18 2.73-.54.86-.36 1.6-.86 2.22-1.5.62-.64 1.12-1.38 1.5-2.22.38-.84.57-1.74.57-2.7 0-.96-.19-1.87-.57-2.73-.38-.86-.88-1.61-1.5-2.25-.62-.64-1.36-1.14-2.22-1.5-.86-.36-1.77-.54-2.73-.54-1 0-1.93.18-2.79.54-.86.36-1.6.86-2.22 1.5-.62.64-1.11 1.37-1.47 2.19-.36.82-.54 1.71-.54 2.67zm13.68-15.3h10.92v30.78h-10.92v-3.42c-2.32 2.92-5.46 4.38-9.42 4.38-2.24 0-4.3-.41-6.18-1.23-1.88-.82-3.52-1.97-4.92-3.45-1.4-1.48-2.49-3.22-3.27-5.22-.78-2-1.17-4.18-1.17-6.54 0-2.2.38-4.29 1.14-6.27.76-1.98 1.82-3.71 3.18-5.19 1.36-1.48 2.98-2.65 4.86-3.51 1.88-.86 3.96-1.29 6.24-1.29 3.84 0 7.02 1.34 9.54 4.02v-3.06zm42.84 15.48c0-.96-.17-1.87-.51-2.73-.34-.86-.83-1.61-1.47-2.25-.64-.64-1.39-1.15-2.25-1.53-.86-.38-1.79-.57-2.79-.57-.96 0-1.86.18-2.7.54-.84.36-1.57.86-2.19 1.5-.62.64-1.12 1.39-1.5 2.25-.38.86-.57 1.77-.57 2.73s.18 1.86.54 2.7c.36.84.86 1.57 1.5 2.19.64.62 1.39 1.12 2.25 1.5.86.38 1.77.57 2.73.57s1.86-.18 2.7-.54c.84-.36 1.57-.86 2.19-1.5.62-.64 1.12-1.38 1.5-2.22.38-.84.57-1.72.57-2.64zm-13.68 30.66h-10.86v-46.14h10.86v3.42c2.32-2.92 5.48-4.38 9.48-4.38 2.2 0 4.25.43 6.15 1.29 1.9.86 3.55 2.03 4.95 3.51 1.4 1.48 2.49 3.22 3.27 5.22.78 2 1.17 4.14 1.17 6.42 0 2.28-.39 4.4-1.17 6.36-.78 1.96-1.86 3.68-3.24 5.16-1.38 1.48-3.01 2.64-4.89 3.48-1.88.84-3.92 1.26-6.12 1.26-3.84 0-7.04-1.32-9.6-3.96v18.36zm51.6-38.22c-2-1.04-3.96-1.56-5.88-1.56-1 0-1.81.2-2.43.6-.62.4-.93.94-.93 1.62 0 .36.05.65.15.87.1.22.32.43.66.63s.84.38 1.5.54c.66.16 1.53.36 2.61.6 3 .6 5.24 1.67 6.72 3.21 1.48 1.54 2.22 3.51 2.22 5.91 0 1.8-.36 3.42-1.08 4.86-.72 1.44-1.72 2.65-3 3.63s-2.82 1.74-4.62 2.28c-1.8.54-3.78.81-5.94.81-4.16 0-8.26-1.18-12.3-3.54l3.96-7.68c3.04 2.08 5.92 3.12 8.64 3.12 1 0 1.82-.22 2.46-.66.64-.44.96-1 .96-1.68 0-.4-.05-.73-.15-.99-.1-.26-.31-.5-.63-.72-.32-.22-.79-.42-1.41-.6-.62-.18-1.43-.37-2.43-.57-3.36-.68-5.71-1.69-7.05-3.03-1.34-1.34-2.01-3.19-2.01-5.55 0-1.72.32-3.27.96-4.65.64-1.38 1.56-2.55 2.76-3.51 1.2-.96 2.65-1.7 4.35-2.22 1.7-.52 3.59-.78 5.67-.78 3.4 0 6.7.66 9.9 1.98l-3.66 7.08zm10.14-26.94h10.86v22.92c1.48-1.8 2.98-3.01 4.5-3.63 1.52-.62 3.3-.93 5.34-.93 3.88 0 6.81 1.07 8.79 3.21 1.98 2.14 2.97 5.03 2.97 8.67v19.56h-10.86v-15.54c0-1.56-.12-2.82-.36-3.78s-.64-1.7-1.2-2.22c-.96-.84-2.12-1.26-3.48-1.26-1.84 0-3.25.55-4.23 1.65-.98 1.1-1.47 2.67-1.47 4.71v16.44h-10.86v-49.8zm50.1 34.26c0 1.04.19 1.99.57 2.85.38.86.88 1.61 1.5 2.25.62.64 1.36 1.14 2.22 1.5.86.36 1.77.54 2.73.54s1.87-.18 2.73-.54c.86-.36 1.6-.86 2.22-1.5.62-.64 1.12-1.39 1.5-2.25.38-.86.57-1.79.57-2.79 0-.96-.19-1.87-.57-2.73-.38-.86-.88-1.61-1.5-2.25-.62-.64-1.36-1.14-2.22-1.5-.86-.36-1.77-.54-2.73-.54s-1.87.18-2.73.54c-.86.36-1.6.86-2.22 1.5-.62.64-1.12 1.38-1.5 2.22-.38.84-.57 1.74-.57 2.7zm-11.46-.12c0-2.28.46-4.41 1.38-6.39.92-1.98 2.2-3.7 3.84-5.16 1.64-1.46 3.59-2.61 5.85-3.45 2.26-.84 4.73-1.26 7.41-1.26 2.64 0 5.09.41 7.35 1.23 2.26.82 4.22 1.96 5.88 3.42 1.66 1.46 2.95 3.2 3.87 5.22.92 2.02 1.38 4.25 1.38 6.69 0 2.44-.47 4.67-1.41 6.69-.94 2.02-2.23 3.76-3.87 5.22-1.64 1.46-3.61 2.59-5.91 3.39-2.3.8-4.79 1.2-7.47 1.2-2.64 0-5.08-.4-7.32-1.2-2.24-.8-4.17-1.94-5.79-3.42s-2.89-3.25-3.81-5.31c-.92-2.06-1.38-4.35-1.38-6.87zm67.74.36c0-.96-.17-1.87-.51-2.73-.34-.86-.83-1.61-1.47-2.25-.64-.64-1.39-1.15-2.25-1.53-.86-.38-1.79-.57-2.79-.57-.96 0-1.86.18-2.7.54-.84.36-1.57.86-2.19 1.5-.62.64-1.12 1.39-1.5 2.25-.38.86-.57 1.77-.57 2.73s.18 1.86.54 2.7c.36.84.86 1.57 1.5 2.19.64.62 1.39 1.12 2.25 1.5.86.38 1.77.57 2.73.57s1.86-.18 2.7-.54c.84-.36 1.57-.86 2.19-1.5.62-.64 1.12-1.38 1.5-2.22.38-.84.57-1.72.57-2.64zm-13.68 30.66H505v-46.14h10.86v3.42c2.32-2.92 5.48-4.38 9.48-4.38 2.2 0 4.25.43 6.15 1.29 1.9.86 3.55 2.03 4.95 3.51 1.4 1.48 2.49 3.22 3.27 5.22.78 2 1.17 4.14 1.17 6.42 0 2.28-.39 4.4-1.17 6.36-.78 1.96-1.86 3.68-3.24 5.16-1.38 1.48-3.01 2.64-4.89 3.48-1.88.84-3.92 1.26-6.12 1.26-3.84 0-7.04-1.32-9.6-3.96v18.36z" fill-rule="nonzero"/>
  <path d="M140.577 54.3h.278l.277.003.277.003.27.004.27.005.27.006.27.01.27.01.27.01.27.01.27.01.27.01.28.01.27.02.27.02.27.02.27.02.27.02.28.02.27.02.27.02.27.02.27.02.27.02.27.02.27.03.27.03.27.03.27.03.27.03.27.03.27.03.27.03.27.03.27.03.27.03.27.04.27.03.27.04.27.04.26.04.27.04.27.04.27.04.27.04.27.04.27.04.27.04.27.05.26.05.26.04.26.04.27.05.26.05.26.05.27.05.27.05.26.05.26.05.26.05.27.05.26.05.26.06.26.06.26.06.26.05.26.06.26.06.26.06.26.06.26.06.26.06.26.06.26.06.26.06.26.06.26.06.26.06.26.07.26.07.26.07.25.07.25.07.26.07.25.07.26.07.25.07.26.07.25.07.26.07.25.08.25.08.26.08.25.08.25.08.25.08.25.08.25.08.25.08.25.08.25.08.25.09.25.08.25.09.25.09.25.09.25.09.25.09.25.09.25.09.24.09.25.09.24.09.25.09.25.1.24.1.24.09.24.09.25.1.48.2.49.19.49.2.48.2.48.2.48.21.48.21.48.21.47.22.47.22.47.22.47.23.47.23.47.23.47.24.46.24.46.24.46.24.46.25.46.25.46.25.45.25.45.26.45.26.45.26.45.26.45.27.45.27.44.27.44.27.44.28.43.28.44.28.43.28.43.29.43.29.43.29.43.29.42.3.42.3.42.3.42.31.42.31.41.31.42.31.41.32.41.32.41.32.41.32.4.32.4.33.4.33.4.33.4.33.39.33.39.34.39.34.38.34.39.34.38.35.38.35.38.35.38.36.37.36.37.36.37.36.36.36.36.36.36.36.36.37.36.37.35.37.35.38.36.38.35.38.34.38.35.38.34.39.34.39.34.39.33.39.34.4.33.39.33.39.32.4.32.4.32.4.32.41.32.41.32.41.32.41.31.41.31.42.303.42.3.42.3.42.29.42.3.43.29.43.29.43.29.43.28.43.29.43.28.44.28.44.272.44.28.44.27.44.27.45.27.45.26.45.26.45.26.45.253.45.25.45.25.46.24.46.25.46.24.46.24.46.23.46.24.47.23.47.23.47.23.47.227.47.22.47.21.48.21.47.21.48.21.48.2.48.2.48.2.48.2.49.19.48.1.25.09.25.09.25.09.25.1.25.09.25.09.25.1.24.09.25.09.24.09.25.09.25.09.25.08.25.08.25.09.25.08.25.08.25.08.25.09.26.08.25.08.25.08.25.08.26.08.25.08.25.07.25.08.26.08.26.07.25.07.25.07.25.07.25.07.26.07.25.07.26.07.26.06.26.07.26.06.25.07.26.07.26.07.26.06.26.06.26.06.26.06.26.06.26.06.26.06.26.06.26.06.26.06.26.06.26.06.26.06.26.05.26.05.26.05.26.05.26.05.27.05.26.05.27.04.26.05.26.048.26.05.27.04.26.04.27.04.26.04.27.04.27.04.26.04.27.04.27.04.27.04.27.04.27.03.26.03.27.03.27.03.27.03.27.03.27.03.27.03.27.03.27.03.27.03.27.02.27.02.27.03.27.03.27.02.27.02.27.02.27.02.27.02.27.02.27.02.27.01.27.02.27.02.28.02.28.01.27.01.27.01.27.01.28.01.27.01.27.01.27v.28l.01.28v2.5l-.01.28v.27l-.01.27-.007.27v.83l-.01.28-.01.28-.01.28-.01.27-.01.28-.02.28-.02.28-.01.28-.02.28-.02.27-.018.28-.02.28-.02.27-.02.27-.02.27-.03.27-.03.27-.02.27-.02.27-.02.27-.028.27-.03.27-.03.27-.03.27-.03.27-.03.27-.03.27-.03.27-.03.27-.03.27-.04.27-.03.27-.04.27-.03.27-.03.27-.04.27-.04.26-.04.27-.04.26-.046.264-.04.26-.04.27-.04.27-.05.264-.05.27-.05.27-.05.27-.05.27-.05.267-.05.26-.05.26-.05.26-.05.26-.05.26-.05.27-.05.26-.06.26-.05.26-.06.26-.06.26-.06.26-.06.26-.06.26-.06.26-.06.26-.06.26-.06.26-.07.25-.07.26-.07.26-.07.25-.07.26-.07.26-.07.25-.07.26-.07.25-.07.254-.08.25-.07.25-.07.26-.07.26-.08.26-.07.25-.08.26-.08.25-.08.25-.08.26-.08.25-.08.25-.08.25-.08.25-.08.25-.08.25-.08.25-.08.25-.08.25-.08.25-.09.25-.08.25-.084.25-.09.25-.09.25-.09.25-.09.25-.09.25-.1.25-.1.25-.09.24-.1.24-.09.25-.1.25-.19.48-.2.48-.2.49-.2.48-.21.49-.21.48-.21.48-.22.47-.21.474-.22.47-.22.47-.23.47-.23.47-.23.47-.24.46-.23.46-.24.46-.24.46-.25.46-.24.46-.25.46-.25.45-.26.45-.26.45-.26.45-.26.45-.27.45-.26.44-.27.45-.27.44-.27.44-.28.44-.28.43-.29.44-.29.43-.29.43-.3.43-.3.42-.3.42-.3.42-.3.42-.3.42-.304.42-.31.41-.31.41-.31.41-.32.41-.32.4-.32.4-.32.41-.33.4-.33.4-.33.4-.34.4-.33.39-.336.39-.34.39-.34.39-.34.38-.35.38-.35.38-.35.38-.35.38-.35.37-.36.37-.36.37-.36.37-.36.37-.37.36-.37.36-.37.36-.37.36-.37.36-.37.35-.38.35-.38.34-.38.34-.38.35-.39.34-.39.34-.39.33-.39.33-.39.33-.39.33-.4.33-.4.32-.4.324-.4.32-.4.32-.41.32-.41.32-.41.31-.41.31-.42.31-.41.3-.42.3-.43.3-.43.3-.43.29-.43.29-.43.29-.43.28-.43.28-.44.28-.44.28-.44.28-.44.27-.44.27-.44.27-.45.26-.442.26-.45.27-.45.26-.45.25-.46.25-.45.25-.46.25-.46.24-.46.25-.463.24-.46.24-.46.23-.46.23-.47.23-.47.22-.47.23-.48.22-.47.22-.48.21-.48.21-.48.21-.48.2-.48.2-.48.2-.49.2-.49.2-.25.1-.25.09-.25.1-.243.09-.25.09-.25.09-.24.09-.25.09-.25.09-.24.09-.25.09-.24.09-.25.09-.25.09-.25.09-.25.08-.25.08-.25.08-.25.084-.25.08-.25.08-.25.08-.25.08-.25.08-.25.08-.25.07-.25.07-.25.076-.25.07-.25.07-.26.07-.26.07-.25.08-.26.08-.26.07-.25.07-.26.07-.26.06-.25.07-.26.07-.26.07-.26.07-.26.06-.26.07-.26.06-.26.06-.26.07-.26.06-.26.06-.26.06-.26.054-.26.06-.26.06-.26.06-.26.06-.26.05-.265.05-.27.05-.27.05-.26.05-.26.05-.27.05-.26.05-.26.05-.27.05-.27.05-.27.05-.27.04-.27.04-.27.04-.263.04-.27.04-.27.04-.27.04-.27.04-.27.04-.27.04-.27.04-.27.04-.27.03-.27.03-.27.03-.27.03-.27.03-.27.03-.27.03-.27.03-.27.03-.27.026-.27.03-.27.03-.27.03-.27.02-.27.02-.27.02-.27.02-.27.02-.27.02-.28.02-.27.02-.27.02-.27.01-.27.02-.28.02-.27.016-.28.01-.27.01-.27.01-.28.01-.28.01-.28.01h-.27l-.27.01h-.27l-.28.01-.28.01h-.3l-.27.01h-1.39l-.28-.01-.28-.01h-.28l-.28-.01h-.55l-.276-.01-.276-.01-.27-.01-.27-.01-.28-.01-.27-.02-.27-.01-.27-.01-.27-.01-.27-.02-.27-.01-.27-.02-.27-.02-.28-.02-.27-.02-.27-.02-.27-.02-.27-.02-.27-.02-.27-.02-.27-.03-.27-.03-.27-.02-.27-.03-.27-.03-.27-.03-.27-.03-.27-.03-.27-.03-.27-.04-.27-.03-.26-.03-.27-.03-.27-.04-.27-.04-.26-.04-.27-.04-.27-.04-.27-.04-.27-.04-.26-.05-.27-.04-.27-.04-.26-.04-.27-.05-.26-.05-.27-.05-.26-.05-.268-.05-.27-.05-.26-.05-.26-.05-.26-.05-.26-.05-.26-.05-.26-.06-.26-.054-.26-.06-.26-.06-.26-.06-.26-.06-.26-.06-.26-.06-.26-.06-.26-.06-.26-.06-.26-.06-.26-.06-.26-.06-.26-.07-.26-.06-.26-.07-.26-.07-.26-.07-.26-.07-.26-.07-.25-.07-.26-.07-.26-.072-.25-.07-.26-.07-.26-.07-.25-.08-.255-.08-.25-.08-.26-.08-.25-.08-.25-.08-.25-.08-.25-.08-.25-.08-.25-.09-.25-.08-.25-.09-.25-.08-.25-.08-.25-.082-.25-.09-.25-.09-.25-.09-.25-.09-.25-.09-.24-.09-.25-.09-.247-.09-.25-.09-.25-.1-.25-.09-.25-.1-.25-.1-.25-.1-.48-.19-.48-.2-.48-.2-.49-.2-.48-.21-.48-.21-.48-.21-.48-.22-.48-.21-.47-.22-.47-.22-.47-.22-.47-.23-.47-.23-.47-.23-.46-.23-.46-.24-.46-.24-.46-.24-.46-.25-.46-.25-.45-.26-.45-.25-.45-.26-.45-.26-.45-.26-.45-.27-.45-.27-.44-.27-.44-.27-.44-.27-.43-.28-.43-.28-.44-.29-.43-.29-.43-.29-.43-.29-.42-.29-.425-.29-.42-.3-.42-.3-.42-.3-.41-.31-.41-.31-.41-.31-.41-.31-.41-.32-.4-.32-.41-.32-.4-.32-.4-.33-.4-.33-.39-.33-.39-.333-.39-.33-.39-.34-.39-.34-.39-.34-.39-.35-.39-.35-.38-.35-.38-.35-.38-.35-.37-.36-.37-.36-.37-.36-.37-.36-.37-.362-.36-.36-.36-.37-.36-.37-.36-.37-.35-.37-.35-.38-.35-.38-.35-.38-.35-.38-.35-.38-.34-.39-.34-.39-.34-.39-.34-.4-.33-.4-.33-.396-.32-.4-.33-.4-.32-.4-.32-.4-.32-.406-.31-.4-.31-.41-.31-.41-.31-.42-.31-.42-.3-.42-.3-.42-.3-.42-.297-.42-.3-.42-.29-.43-.29-.43-.29-.43-.28-.43-.28-.43-.28-.43-.28-.44-.28-.44-.27-.44-.27-.45-.265-.45-.27-.45-.26-.45-.26-.45-.26-.45-.25-.46-.25-.46-.25-.46-.25-.46-.24-.46-.24-.46-.23-.465-.24-.47-.23-.47-.23-.47-.22-.47-.22-.47-.22-.477-.22-.47-.22-.48-.21-.48-.21-.48-.21-.48-.21-.49-.2-.48-.19-.49-.19-.49-.1-.25-.09-.24-.09-.25-.09-.24-.09-.25-.09-.25-.09-.24-.09-.24-.09-.24-.09-.25-.09-.25-.08-.25-.09-.25-.09-.25-.09-.25-.09-.25-.083-.25-.08-.25-.08-.25-.08-.25-.08-.26-.08-.25-.08-.25-.08-.25-.08-.25-.08-.25-.073-.26-.08-.25-.08-.25-.07-.25-.08-.26-.08-.26-.07-.253-.07-.26-.07-.26-.07-.26-.07-.26-.07-.26-.06-.26-.07-.26-.06-.25-.06-.25-.06-.26-.06-.26-.06-.26-.07-.26-.06-.26-.06-.26-.06-.26-.06-.26-.06-.26-.06-.26-.05-.26-.05-.26-.05-.268-.05-.26-.06-.27-.05-.26-.05-.27-.05-.26-.05-.26-.05-.27-.05-.26-.05-.27-.05-.27-.04-.26-.05-.27-.05-.267-.04-.27-.04-.27-.05-.27-.04-.27-.04-.27-.04-.27-.04-.26-.04-.27-.04-.27-.04-.267-.03-.27-.03-.27-.03-.27-.03-.27-.03-.26-.03-.27-.03-.27-.03-.27-.03-.27-.03-.27-.03-.27-.03-.27-.02-.27-.02-.27-.02-.28-.02-.27-.02-.27-.02-.27-.02-.27-.02-.27-.02-.27-.02-.27-.02-.27-.01-.28-.02-.27-.01-.28-.01-.27-.02-.27-.01-.27-.01-.27-.01-.28-.01-.28v-.27l-.01-.27-.01-.28-.01-.28v-.84l-.01-.28v-1.11l.01-.28V139l.003-.27.01-.27.01-.28.01-.28.01-.28.01-.28.01-.28.01-.28.01-.27.01-.27.01-.28.01-.27.02-.28.01-.276.02-.27.02-.28.02-.27.02-.27.02-.27.02-.27.02-.28.02-.27.03-.27.02-.27.03-.27.02-.28.03-.27.03-.272.03-.27.03-.27.03-.27.03-.27.03-.27.04-.27.03-.27.034-.27.04-.27.03-.27.04-.27.04-.26.04-.26.04-.27.04-.27.04-.27.04-.26.05-.27.05-.267.048-.27.04-.27.04-.26.05-.26.05-.26.05-.26.05-.26.05-.26.05-.27.05-.26.05-.26.05-.26.05-.26.05-.26.05-.26.06-.26.06-.26.06-.26.06-.26.06-.26.06-.26.06-.26.06-.26.06-.26.06-.26.06-.26.07-.26.07-.26.06-.256.07-.26.07-.26.07-.26.07-.26.07-.26.07-.26.07-.25.07-.25.08-.26.08-.25.08-.25.07-.25.08-.25.08-.25.08-.26.08-.25.08-.26.08-.25.08-.25.09-.25.09-.25.08-.25.08-.25.09-.25.09-.25.08-.25.08-.25.09-.25.09-.24.09-.25.09-.24.09-.25.09-.24.09-.24.1-.25.1-.24.1-.25.1-.25.1-.25.2-.48.2-.48.2-.48.2-.48.2-.48.21-.48.21-.48.21-.48.22-.48.22-.48.22-.47.22-.47.23-.47.23-.47.235-.47.24-.47.24-.46.24-.46.25-.46.25-.46.25-.46.25-.45.25-.45.26-.45.26-.45.268-.45.27-.45.27-.44.27-.44.27-.44.28-.44.28-.44.29-.43.28-.44.29-.43.29-.43.29-.43.3-.43.29-.427.3-.42.3-.42.3-.42.31-.41.31-.41.31-.42.31-.41.32-.41.32-.41.32-.41.32-.41.32-.4.33-.4.33-.397.33-.39.34-.39.34-.39.34-.39.34-.39.35-.38.34-.39.35-.38.35-.38.35-.38.354-.37.36-.37.36-.37.36-.37.36-.36.37-.37.37-.36.37-.36.37-.36.38-.35.38-.35.38-.35.38-.35.38-.34.39-.35.39-.34.39-.34.39-.34.39-.33.4-.33.4-.33.4-.33.4-.33.4-.33.4-.32.41-.32.41-.31.41-.31.42-.31.42-.31.42-.31.42-.3.42-.3.42-.3.42-.3.43-.3.43-.29.43-.29.43-.28.43-.28.44-.28.43-.28.43-.27.44-.27.44-.27.44-.27.45-.264.45-.26.45-.26.45-.26.45-.26.46-.25.45-.25.46-.25.46-.25.46-.24.47-.24.46-.24.46-.23.47-.23.47-.23.47-.23.48-.22.47-.22.48-.21.47-.21.48-.21.48-.21.48-.21.48-.2.49-.2.49-.2.48-.19.25-.1.24-.1.24-.09.24-.09.25-.09.24-.09.25-.09.25-.09.25-.09.24-.09.25-.09.25-.08.25-.09.25-.08.25-.08.25-.09.25-.08.25-.09.25-.08.25-.08.25-.08.25-.08.25-.08.25-.08.26-.08.25-.08.25-.08.25-.08.25-.07.25-.075.25-.07.25-.07.256-.07.26-.07.25-.07.25-.07.26-.07.25-.06.26-.07.26-.06.26-.07.26-.06.26-.07.26-.06.26-.06.26-.06.26-.06.26-.06.26-.06.26-.06.26-.06.26-.06.26-.06.27-.05.26-.058.26-.055.26-.05.27-.05.26-.05.26-.05.26-.05.27-.05.26-.05.26-.05.27-.04.27-.04.26-.05.27-.04.27-.048.27-.05.26-.05.27-.04.26-.04.27-.04.27-.04.27-.04.27-.03.27-.04.27-.04.27-.04.27-.034.27-.03.27-.03.27-.03.27-.03.27-.03.27-.03.27-.03.27-.03.27-.03.27-.03.27-.02.27-.02.28-.02.27-.03.27-.02.27-.02.27-.02.27-.02.28-.02.277-.02.27-.01.28-.01.28-.01.27-.01.28-.01.27-.01.27-.01.27-.01.27-.01.27-.01.28-.01.28-.01h.82l.28-.01h1.12zm-.517 12h-.24l-.24.003-.24.002-.238.004h-1.192l-.238.01-.237.01-.238.01-.237.01-.237.01-.237.01-.236.01-.237.01-.236.01-.236.01-.23.01-.23.01-.23.02-.23.01-.23.02-.23.02-.23.02-.23.02-.23.02-.23.02-.24.02-.23.02-.23.02-.23.02-.23.02-.23.03-.23.03-.23.02-.23.03-.23.03-.23.03-.23.03-.23.03-.23.03-.23.03-.23.03-.23.03-.23.03-.23.04-.23.04-.23.04-.22.04-.23.04-.22.04-.23.04-.23.04-.23.04-.23.04-.22.04-.23.04-.23.04-.22.04-.22.05-.23.04-.22.05-.23.05-.23.05-.23.05-.22.04-.23.05-.22.05-.22.05-.22.05-.22.05-.22.05-.22.05-.22.05-.22.06-.22.05-.23.05-.22.06-.22.06-.22.06-.22.05-.22.06-.22.06-.22.06-.22.06-.22.06-.22.06-.22.06-.21.06-.21.07-.22.06-.22.07-.21.07-.22.07-.22.07-.21.07-.21.07-.21.07-.22.07-.21.07-.21.08-.21.07-.22.07-.21.07-.21.07-.21.08-.21.07-.21.07-.21.08-.21.07-.22.08-.21.08-.21.08-.21.08-.21.08-.21.08-.21.08-.42.17-.42.17-.42.17-.42.17-.41.18-.41.17-.42.18-.41.19-.41.19-.4.19-.41.19-.4.19-.4.19-.4.2-.4.2-.4.2-.4.21-.4.2-.4.21-.4.22-.39.21-.39.22-.39.22-.39.22-.39.22-.38.23-.38.23-.38.23-.38.23-.38.23-.38.23-.38.24-.37.24-.37.24-.37.24-.37.25-.37.25-.36.25-.37.25-.36.26-.37.26-.36.26-.36.26-.35.27-.35.27-.35.27-.35.27-.35.27-.35.27-.35.27-.34.28-.34.28-.34.28-.34.28-.34.29-.33.29-.33.29-.33.29-.33.3-.33.3-.33.3-.33.3-.32.3-.32.3-.32.31-.32.31-.32.31-.31.31-.31.32-.31.31-.31.31-.31.32-.3.32-.3.32-.3.32-.3.33-.3.33-.29.33-.29.34-.29.34-.29.34-.29.34-.29.34-.28.34-.28.34-.28.34-.28.35-.27.35-.27.35-.27.35-.27.35-.27.36-.26.36-.26.36-.26.36-.26.36-.25.36-.25.37-.25.37-.25.37-.25.37-.25.37-.24.37-.24.38-.24.37-.23.37-.23.38-.23.38-.23.38-.23.38-.23.38-.22.38-.22.39-.22.39-.22.39-.22.39-.21.4-.21.39-.21.39-.2.4-.2.4-.2.4-.2.4-.19.4-.19.41-.19.41-.19.41-.19.4-.18.41-.18.41-.18.42-.18.41-.17.41-.17.42-.17.42-.17.42-.08.2-.08.21-.09.21-.08.21-.08.21-.08.22-.08.21-.08.21-.07.21-.07.21-.07.21-.07.21-.08.22-.07.22-.08.22-.07.22-.08.21-.07.22-.07.22-.07.22-.07.21-.07.22-.07.21-.07.22-.07.22-.07.21-.07.22-.06.22-.06.22-.06.22-.06.21-.07.22-.06.22-.06.22-.06.22-.06.22-.06.22-.06.22-.06.22-.06.22-.06.22-.05.22-.05.22-.05.22-.06.22-.05.22-.06.22-.05.22-.05.23-.05.22-.05.23-.05.23-.05.22-.04.22-.05.22-.05.22-.05.22-.04.23-.05.23-.04.22-.05.23-.04.23-.04.23-.04.22-.04.23-.04.23-.04.23-.03.23-.03.23-.04.23-.03.23-.04.23-.03.23-.03.23-.03.23-.03.23-.03.23-.03.23-.03.24-.03.23-.03.23-.03.23-.03.23-.03.23-.02.23-.04.25-.02.23-.02.24-.02.23-.02.23-.02.24-.02.23-.02.24-.02.23-.02.23-.02.24-.02.23-.02.24-.02.24-.01.23-.02.23-.01.24-.01.23-.01.24-.01.23-.01.24-.01.24-.01.24-.01.23v.48l-.01.24v.24l-.01.24-.01.24v1.68l.01.24.01.24.01.24v1.2l.01.24.01.24.01.23.01.24.01.23.01.24.01.24.01.23.02.23.01.24.02.24.02.24.02.23.01.24.02.23.02.23.02.23.02.23.02.23.02.23.02.23.02.23.03.23.02.24.03.23.02.23.03.23.03.23.03.24.03.23.03.23.03.235.03.23.03.23.04.23.03.23.04.23.03.23.04.23.04.23.04.23.04.23.04.23.04.23.04.23.04.23.04.23.04.22.04.23.04.22.04.23.05.23.05.22.05.22.04.23.05.23.04.22.05.22.05.226.05.23.05.23.05.22.05.225.05.23.05.23.06.22.05.22.06.23.06.22.05.22.05.22.06.22.06.22.06.22.06.22.06.22.07.22.06.22.06.22.06.22.07.22.06.22.06.22.06.22.07.22.07.22.07.22.07.22.07.218.07.22.07.22.07.22.07.21.07.214.07.21.07.21.07.22.08.217.07.21.08.21.08.21.08.21.08.21.08.21.08.21.08.21.08.21.09.21.08.21.08.21.17.42.17.42.17.42.18.41.17.42.18.41.18.41.19.41.19.41.19.4.19.41.19.4.19.41.2.4.2.4.2.4.2.4.21.4.21.39.21.39.22.39.215.39.22.39.22.39.23.39.22.38.23.39.23.38.23.38.23.38.24.38.24.38.24.38.25.37.24.37.25.37.25.37.25.37.26.37.26.36.26.36.26.36.26.36.27.35.27.36.27.36.27.35.27.35.27.35.28.35.28.35.28.35.28.34.29.34.29.34.29.33.29.34.29.33.29.33.3.33.3.33.3.33.31.32.3.32.31.32.31.32.31.32.31.31.32.31.31.31.32.31.32.304.32.3.33.304.33.3.33.3.33.3.33.3.33.3.33.29.33.29.34.28.34.29.34.29.34.28.34.28.346.28.35.28.35.27.35.27.36.27.36.27.36.27.36.26.36.26.36.26.36.26.36.26.37.25.37.25.37.25.37.25.37.24.37.24.38.24.38.24.38.23.38.23.38.23.38.23.38.22.39.23.39.22.39.22.39.22.4.22.39.21.4.21.4.21.4.2.4.2.4.2.4.2.41.2.41.19.4.19.41.19.41.18.41.19.41.18.41.18.42.173.41.18.42.17.42.17.42.17.2.08.21.08.21.08.22.08.21.08.21.08.21.08.21.08.21.08.21.074.21.08.21.08.21.07.21.08.21.07.21.07.22.07.21.07.22.07.22.07.22.07.21.07.22.07.21.07.22.07.22.064.21.07.22.07.22.07.22.06.21.06.22.06.22.07.22.06.22.06.22.06.22.06.22.05.22.06.22.06.22.06.23.05.22.06.22.05.22.053.22.06.22.05.23.05.225.05.22.05.22.05.22.05.22.05.23.05.23.05.22.05.22.05.22.05.22.04.23.04.226.05.23.05.23.04.23.04.23.05.23.04.23.04.23.04.23.04.23.03.23.035.23.03.23.03.23.03.23.03.23.03.23.036.23.03.23.03.23.03.23.03.23.03.23.02.24.03.23.02.23.02.24.03.236.03.23.02.23.02.23.02.24.02.24.02.24.02.23.02.23.01.23.02.23.02.24.014.24.02.24.01.23.01.24.016.23.01.24.01.24.01.24.01.24.01.24.01.24.01.23.01h.24l.238.007.24.01.24.01h2.63l.24-.01.24-.01h.24l.24-.01.24-.01.24-.01.24-.01.24-.01.24-.01.23-.01.24-.01.24-.01.24-.02.24-.01.23-.01.23-.02.24-.02.24-.018.24-.02.24-.02.24-.02.23-.02.23-.02.23-.02.23-.02.24-.02.23-.02.24-.03.23-.03.23-.03.23-.026.23-.03.23-.03.23-.03.23-.03.24-.03.23-.03.23-.033.23-.03.23-.03.23-.03.23-.04.23-.04.23-.04.23-.04.23-.04.23-.04.23-.04.23-.04.23-.04.23-.04.23-.04.22-.04.23-.04.22-.04.23-.04.23-.04.22-.05.22-.05.23-.04.23-.05.22-.05.22-.05.23-.05.22-.05.23-.06.22-.05.22-.05.22-.05.22-.05.22-.06.22-.054.22-.06.22-.06.22-.06.22-.06.22-.06.22-.06.22-.06.22-.06.22-.06.22-.06.22-.07.22-.07.22-.06.22-.07.22-.06.21-.06.22-.07.22-.06.22-.07.22-.07.22-.07.21-.07.21-.07.22-.07.22-.08.22-.07.21-.07.21-.073.22-.07.21-.08.21-.08.22-.08.218-.07.22-.08.21-.07.22-.08.21-.08.21-.08.21-.08.21-.08.21-.08.2-.08.43-.17.415-.17.42-.17.41-.17.42-.18.41-.18.41-.18.41-.19.41-.19.4-.19.4-.19.41-.19.4-.19.4-.2.4-.2.4-.21.4-.21.39-.21.4-.21.39-.21.39-.22.39-.22.39-.22.39-.22.39-.22.38-.23.38-.23.38-.23.38-.23.38-.23.38-.23.38-.24.38-.24.37-.25.37-.25.37-.25.36-.25.37-.26.37-.26.37-.25.36-.26.36-.26.36-.26.35-.26.36-.27.35-.27.35-.27.35-.28.35-.28.35-.27.35-.28.34-.28.34-.29.34-.282.34-.29.34-.29.34-.29.34-.29.33-.3.33-.3.33-.3.33-.3.32-.3.32-.31.32-.31.32-.31.312-.31.32-.31.31-.32.31-.312.31-.32.31-.32.31-.32.3-.33.3-.32.3-.32.3-.33.29-.33.3-.34.29-.33.29-.34.29-.34.29-.34.28-.34.282-.34.28-.35.27-.35.28-.35.28-.35.27-.35.27-.36.27-.36.27-.354.26-.36.26-.36.26-.36.25-.36.26-.37.26-.36.25-.37.25-.37.24-.37.24-.37.245-.38.24-.38.24-.38.23-.38.24-.38.23-.38.23-.38.22-.38.22-.39.22-.39.22-.39.22-.39.22-.39.21-.39.21-.39.21-.4.21-.4.2-.4.2-.4.2-.41.19-.4.19-.41.19-.4.19-.41.19-.41.19-.41.18-.41.18-.41.18-.417.17-.41.18-.42.17-.42.16-.42.08-.21.09-.21.08-.21.09-.21.08-.21.08-.21.08-.21.08-.21.08-.22.07-.21.08-.21.08-.21.08-.22.07-.22.07-.21.07-.21.07-.21.07-.22.07-.22.07-.22.07-.22.07-.22.07-.22.07-.22.07-.22.06-.22.07-.21.06-.22.06-.21.06-.22.07-.22.06-.22.07-.22.06-.22.06-.22.06-.22.06-.22.06-.22.06-.22.06-.22.06-.23.06-.22.06-.22.06-.23.06-.22.05-.23.05-.22.05-.22.05-.228.05-.22.05-.23.05-.22.05-.22.05-.23.05-.224.04-.22.04-.23.05-.22.04-.23.05-.23.04-.22.04-.23.04-.22.04-.23.04-.23.04-.23.04-.23.04-.22.04-.23.04-.23.04-.23.04-.23.04-.23.04-.23.03-.23.03-.23.03-.23.03-.23.03-.23.03-.23.03-.23.03-.23.03-.23.03-.23.02-.24.02-.23.02-.23.03-.23.02-.24.02-.23.02-.24.02-.24.02-.23.02-.23.02-.24.02-.24.02-.24.01-.23.02-.24.01-.237.01-.237.01-.24.01-.23.01-.24.01-.235.01-.23.01-.24.01-.23.01-.24.01-.23.01-.24v-.24l.01-.24.01-.24v-.24l.01-.24v-.24l.01-.24v-1.44l-.01-.24v-.47l-.01-.24-.01-.24-.01-.24v-.23l-.01-.24-.01-.24-.01-.24-.01-.24-.01-.24-.02-.23-.01-.24-.02-.238-.02-.24-.01-.24-.01-.23-.02-.23-.01-.24-.02-.24-.02-.24-.02-.23-.02-.23-.02-.23-.02-.23-.02-.24-.02-.24-.02-.23-.02-.23-.02-.23-.03-.23-.03-.23-.02-.23-.03-.23-.03-.23-.03-.23-.03-.23-.03-.23-.03-.23-.04-.23-.03-.23-.03-.23-.03-.23-.04-.23-.03-.23-.04-.23-.04-.23-.04-.23-.04-.23-.04-.23-.04-.23-.04-.23-.04-.23-.045-.23-.04-.23-.05-.23-.04-.23-.05-.22-.04-.22-.05-.22-.04-.23-.04-.22-.05-.23-.05-.22-.05-.22-.05-.22-.05-.23-.05-.22-.05-.22-.06-.23-.05-.22-.05-.22-.05-.22-.053-.22-.058-.22-.05-.22-.06-.22-.06-.22-.06-.22-.06-.22-.06-.22-.06-.22-.06-.22-.06-.22-.06-.22-.07-.21-.064-.22-.06-.22-.06-.22-.07-.22-.07-.22-.07-.22-.07-.22-.07-.22-.07-.21-.07-.22-.07-.21-.08-.22-.07-.21-.08-.22-.07-.21-.08-.214-.07-.22-.07-.22-.08-.21-.08-.22-.07-.21-.08-.21-.08-.21-.08-.21-.08-.216-.08-.21-.09-.21-.09-.21-.08-.21-.17-.42-.17-.42-.17-.42-.18-.41-.18-.41-.18-.41-.18-.41-.18-.41-.19-.41-.19-.41-.19-.41-.19-.4-.2-.41-.2-.4-.2-.4-.2-.4-.2-.4-.21-.39-.21-.4-.22-.39-.21-.39-.22-.39-.22-.39-.22-.39-.22-.39-.22-.38-.23-.38-.23-.38-.23-.38-.23-.38-.24-.38-.24-.37-.24-.37-.24-.37-.25-.37-.25-.37-.25-.37-.25-.36-.26-.36-.25-.36-.26-.36-.26-.36-.26-.36-.27-.35-.27-.355-.27-.36-.27-.35-.27-.35-.28-.35-.27-.35-.28-.35-.28-.34-.28-.34-.29-.34-.29-.34-.29-.34-.29-.34-.29-.33-.3-.33-.3-.33-.3-.33-.3-.323-.31-.32-.31-.32-.31-.32-.31-.32-.31-.32-.31-.32-.317-.31-.32-.31-.32-.31-.32-.31-.32-.31-.33-.3-.33-.31-.33-.3-.33-.3-.33-.3-.33-.29-.34-.29-.33-.29-.34-.29-.34-.28-.34-.29-.35-.28-.35-.28-.35-.28-.5-.29-.35-.27-.35-.27-.35-.27-.36-.27-.35-.27-.36-.26-.36-.26-.36-.26-.37-.26-.37-.25-.36-.26-.37-.25-.37-.25-.376-.24-.37-.25-.372-.25-.37-.24-.38-.24-.38-.24-.38-.23-.39-.23-.39-.23-.39-.23-.39-.22-.39-.22-.39-.22-.39-.22-.39-.22-.4-.22-.4-.21-.4-.21-.4-.21-.4-.21-.4-.2-.41-.2-.4-.195-.41-.19-.41-.19-.41-.18-.41-.18-.41-.18-.41-.18-.42-.18-.41-.17-.42-.17-.42-.18-.42-.17-.422-.17-.21-.08-.21-.09-.21-.08-.21-.08-.21-.08-.22-.08-.21-.08-.21-.08-.21-.08-.21-.08-.21-.08-.21-.07-.21-.08-.22-.08-.21-.07-.216-.07-.21-.07-.21-.07-.21-.07-.21-.07-.22-.07-.22-.07-.21-.07-.22-.06-.22-.07-.22-.07-.22-.07-.22-.06-.22-.07-.22-.07-.22-.06-.21-.06-.22-.06-.22-.06-.22-.06-.22-.06-.22-.06-.22-.06-.22-.06-.22-.05-.22-.06-.22-.06-.22-.05-.22-.05-.22-.06-.23-.05-.22-.05-.22-.05-.23-.05-.22-.05-.23-.05-.23-.05-.22-.04-.23-.05-.22-.05-.23-.05-.23-.04-.23-.05-.23-.05-.22-.04-.23-.04-.23-.05-.22-.04-.22-.04-.23-.04-.23-.04-.23-.04-.23-.04-.23-.036-.23-.03-.22-.04-.23-.04-.23-.04-.23-.04-.23-.03-.23-.03-.23-.03-.23-.04-.23-.03-.23-.03-.23-.03-.23-.02-.24-.03-.24-.03-.23-.02-.24-.03-.24-.03-.23-.02-.24-.027-.234-.02-.23-.02-.23-.02-.23-.02-.23-.02-.23-.02-.24-.02-.24-.01-.23-.02-.24-.02-.24-.02-.24-.01-.23-.01-.24-.01-.23-.01-.24-.01-.24-.01-.24-.01-.23-.01-.24-.01-.23-.01-.24-.01-.24-.01-.24-.01-.24-.01h-.74l-.24-.01h-.71z"/>
  <g fill-rule="nonzero">
    <path d="M169.546 169.56S152 151.99 140.304 151.99c-13.082 0-29.253 17.57-29.253 17.57s17.55-17.57 17.55-29.25c0-11.712-17.54-29.26-17.54-29.26s17.55 17.548 29.26 17.548c11.7 0 29.24-17.547 29.24-17.547S152 128.6 152 140.31c0 11.68 17.546 29.25 17.546 29.25"/>
    <path d="M192.006 140.31s-31.022 0-41.37 10.335c-11.56 11.56-10.332 41.37-10.332 41.37s0-31.03-10.34-41.37C119.614 140.31 88.59 140.31 88.59 140.31s31.022 0 41.37-10.356c10.342-10.33 10.342-41.37 10.342-41.37s0 31.04 10.33 41.37c10.35 10.355 41.372 10.355 41.372 10.355"/>
  </g>
  <path d="M133.72 84.3V70.726h3.53l6.515 8.298v-8.298h3.51V84.3h-3.51L137.25 76v8.3h-3.53zm9.45 115.9c-.383-.31-.767-.542-1.15-.692-.385-.15-.757-.225-1.117-.225-.456 0-.828.108-1.116.324-.288.216-.432.498-.432.846 0 .24.072.438.216.594.15.156.34.29.57.405.24.114.5.213.79.297.3.08.59.17.88.27 1.15.38 2 .89 2.53 1.53.54.64.8 1.48.8 2.51 0 .69-.11 1.32-.35 1.89-.23.56-.57 1.05-1.02 1.45-.45.4-1 .71-1.65.93-.65.22-1.39.33-2.22.33-1.71 0-3.3-.51-4.77-1.53l1.52-2.85c.53.47 1.05.81 1.57 1.04.52.23 1.03.34 1.53.34.58 0 1.01-.14 1.29-.4.29-.27.43-.57.43-.9 0-.21-.04-.38-.11-.53-.07-.15-.19-.29-.36-.42-.17-.13-.39-.25-.66-.35-.27-.11-.59-.23-.98-.36-.45-.15-.9-.31-1.34-.48-.43-.18-.82-.41-1.17-.69-.34-.29-.61-.65-.82-1.09-.21-.44-.31-1-.31-1.67 0-.67.11-1.28.33-1.82.22-.55.54-1.02.94-1.41.4-.39.9-.69 1.48-.91.59-.22 1.24-.32 1.96-.32.67 0 1.38.09 2.11.28.73.18 1.44.46 2.11.82l-1.4 2.75z" fill-rule="nonzero"/>
</svg>
