<svg xmlns="http://www.w3.org/2000/svg" fill-rule="evenodd" stroke-miterlimit="1.4142" viewBox="0 0 1608 534" clip-rule="evenodd" stroke-linejoin="round">
  <path fill="none" d="M0 0h1607.04v533.633H0z"/>
  <path fill="#b1e5d9" d="M522.817 522.817h-512v-512h512v512zm-500-500v488h488v-488h-488z"/>
  <path fill="#b1e5d9" fill-rule="nonzero" d="M130.787 433.836l36.851-217.071h55.851l43.472 115.732 43.184-115.732h55.851l36.85 217.071h-56.139L327.994 308.89l-51.245 124.946h-22.456L205.639 308.89l-18.713 124.946h-56.139z"/>
  <path fill="#f1603e" d="M266.957 99.798l42.674 114.967h-85.347l42.673-114.967z"/>
  <path fill="#b1e5d9" fill-rule="nonzero" d="M630.219 433.428l29.102-171.426h44.107l34.331 91.397 34.103-91.397h44.107l29.101 171.426h-44.334l-14.778-98.672-40.469 98.672h-17.734l-38.423-98.672-14.778 98.672h-44.335zm271.236-58.658c0 3.79.682 7.314 2.046 10.572 1.364 3.259 3.221 6.101 5.57 8.526s5.153 4.32 8.412 5.684c3.259 1.364 6.783 2.046 10.572 2.046 3.638 0 7.086-.682 10.345-2.046 3.259-1.364 6.063-3.259 8.412-5.684 2.349-2.425 4.244-5.229 5.684-8.412 1.44-3.183 2.16-6.593 2.16-10.231s-.72-7.086-2.16-10.345c-1.44-3.258-3.335-6.1-5.684-8.525-2.349-2.425-5.153-4.32-8.412-5.684-3.259-1.364-6.707-2.046-10.345-2.046-3.789 0-7.313.682-10.572 2.046-3.259 1.364-6.063 3.259-8.412 5.684-2.349 2.425-4.206 5.191-5.57 8.298-1.364 3.107-2.046 6.48-2.046 10.117zm51.837-57.975h41.378v116.633h-41.378v-12.959c-8.791 11.065-20.69 16.597-35.695 16.597-8.488 0-16.294-1.554-23.418-4.661-7.124-3.107-13.338-7.465-18.643-13.073-5.305-5.608-9.435-12.201-12.391-19.78-2.955-7.578-4.433-15.839-4.433-24.782 0-8.336 1.44-16.255 4.32-23.758 2.879-7.503 6.896-14.058 12.049-19.666 5.154-5.609 11.292-10.042 18.416-13.301 7.124-3.259 15.006-4.888 23.645-4.888 14.551 0 26.601 5.078 36.15 15.233v-11.595zm162.328 58.658c0-3.638-.645-7.086-1.933-10.345-1.288-3.259-3.145-6.101-5.57-8.526-2.425-2.425-5.267-4.358-8.526-5.798-3.259-1.439-6.783-2.159-10.572-2.159-3.638 0-7.048.682-10.231 2.046-3.183 1.364-5.949 3.259-8.299 5.684-2.349 2.425-4.243 5.267-5.683 8.525-1.44 3.259-2.16 6.707-2.16 10.345 0 3.638.682 7.048 2.046 10.231 1.364 3.183 3.259 5.949 5.684 8.299 2.425 2.349 5.267 4.244 8.526 5.684 3.258 1.439 6.707 2.159 10.344 2.159 3.638 0 7.048-.682 10.231-2.046 3.183-1.364 5.949-3.259 8.299-5.684 2.349-2.425 4.244-5.229 5.684-8.412 1.44-3.183 2.16-6.517 2.16-10.003zm-51.838 116.178h-41.151V316.795h41.151v12.959c8.792-11.065 20.766-16.597 35.923-16.597 8.336 0 16.104 1.629 23.304 4.888 7.199 3.259 13.451 7.692 18.756 13.301 5.305 5.608 9.436 12.201 12.391 19.779 2.956 7.579 4.434 15.688 4.434 24.328 0 8.639-1.478 16.672-4.434 24.099-2.955 7.427-7.048 13.945-12.277 19.553-5.229 5.608-11.406 10.003-18.529 13.186-7.124 3.183-14.854 4.775-23.191 4.775-14.55 0-26.676-5.002-36.377-15.006v69.571zM1250.9 299.743v133.685h-44.562V299.743h-36.604v-37.741h117.77v37.741H1250.9zm82.98 74.8c0 3.941.72 7.541 2.16 10.799 1.44 3.259 3.334 6.101 5.684 8.526 2.349 2.425 5.153 4.32 8.412 5.684 3.259 1.364 6.707 2.046 10.345 2.046 3.637 0 7.085-.682 10.344-2.046 3.259-1.364 6.063-3.259 8.412-5.684 2.35-2.425 4.244-5.267 5.684-8.526 1.44-3.258 2.16-6.782 2.16-10.572 0-3.637-.72-7.085-2.16-10.344-1.44-3.259-3.334-6.101-5.684-8.526-2.349-2.425-5.153-4.32-8.412-5.684-3.259-1.364-6.707-2.046-10.344-2.046-3.638 0-7.086.682-10.345 2.046-3.259 1.364-6.063 3.259-8.412 5.684-2.35 2.425-4.244 5.229-5.684 8.412-1.44 3.183-2.16 6.593-2.16 10.231zm-43.425-.455c0-8.639 1.743-16.71 5.229-24.213 3.486-7.503 8.337-14.02 14.551-19.553 6.214-5.532 13.603-9.89 22.167-13.073 8.564-3.182 17.923-4.774 28.079-4.774 10.003 0 19.287 1.554 27.851 4.661 8.563 3.107 15.99 7.427 22.28 12.959 6.291 5.532 11.179 12.126 14.665 19.78 3.486 7.654 5.229 16.104 5.229 25.35 0 9.246-1.781 17.696-5.343 25.35-3.562 7.655-8.45 14.248-14.664 19.78-6.215 5.533-13.679 9.814-22.395 12.846-8.715 3.031-18.15 4.547-28.306 4.547-10.003 0-19.249-1.516-27.737-4.547-8.488-3.032-15.801-7.351-21.94-12.959-6.138-5.609-10.951-12.316-14.437-20.121-3.486-7.806-5.229-16.484-5.229-26.033zm256.685 1.365c0-3.638-.644-7.086-1.932-10.345-1.288-3.259-3.145-6.101-5.57-8.526-2.425-2.425-5.267-4.358-8.526-5.798-3.259-1.439-6.783-2.159-10.572-2.159-3.638 0-7.048.682-10.231 2.046-3.183 1.364-5.949 3.259-8.299 5.684-2.349 2.425-4.244 5.267-5.684 8.525-1.439 3.259-2.159 6.707-2.159 10.345 0 3.638.682 7.048 2.046 10.231 1.364 3.183 3.259 5.949 5.684 8.299 2.425 2.349 5.267 4.244 8.526 5.684 3.258 1.439 6.707 2.159 10.344 2.159 3.638 0 7.048-.682 10.231-2.046 3.183-1.364 5.949-3.259 8.299-5.684 2.349-2.425 4.244-5.229 5.684-8.412 1.439-3.183 2.159-6.517 2.159-10.003zm-51.837 116.178h-41.151V316.795h41.151v12.959c8.791-11.065 20.766-16.597 35.923-16.597 8.336 0 16.104 1.629 23.304 4.888 7.199 3.259 13.451 7.692 18.756 13.301 5.305 5.608 9.436 12.201 12.391 19.779 2.956 7.579 4.434 15.688 4.434 24.328 0 8.639-1.478 16.672-4.434 24.099-2.955 7.427-7.048 13.945-12.277 19.553-5.229 5.608-11.406 10.003-18.529 13.186-7.124 3.183-14.854 4.775-23.191 4.775-14.55 0-26.676-5.002-36.377-15.006v69.571z"/>
</svg>
