<svg xmlns="http://www.w3.org/2000/svg" fill-rule="evenodd" stroke-miterlimit="1.41421" viewBox="0 0 512 512" clip-rule="evenodd" stroke-linejoin="round">
  <path fill="#B1E5D9" d="M511.9046 511.9999103H-.09535276V-.00004243H511.9046V511.9999103zM11.90516938 12.0004797v487.9999081h487.9999081V12.0004797H11.9051694z"/>
  <path fill="#82C9B9" d="M256.00074 306.2659663l63.99958857 96.0011472H448.00122L320.00032857 210.2661918 256.00074 306.2659663z"/>
  <path fill="#B1E5D9" d="M463.882 410.7661H315.451L192 225.5901 79.882 393.7661h68.451l11.334 17H48.118L192 194.9421l64 96 64-96 143.882 215.824zm-197.666-104.5l58.333 87.5h107.569L320 225.5901l-53.784 80.676z"/>
  <path fill="#F1603E" d="M255.9996845 101.23551876l-61.3541722 92.0316626h122.7083444l-61.3541722-92.0316626z"/>
  <path fill="#D94726" d="M256.0008245 101.23551876v92.0316626h-61.3541722l61.3541722-92.0316626z"/>
</svg>
